G04 PROTEUS GERBER X2 FILE*
%TF.GenerationSoftware,Labcenter,Proteus,8.15-SP1-Build34318*%
%TF.CreationDate,2024-02-24T08:34:58+00:00*%
%TF.FileFunction,Paste,Top*%
%TF.FilePolarity,Positive*%
%TF.Part,Single*%
%TF.SameCoordinates,{d6b9a477-15e1-4d55-aad5-44706a46bc90}*%
%FSLAX45Y45*%
%MOMM*%
G01*
%TA.AperFunction,Material*%
%ADD47R,1.498600X0.558800*%
%ADD48R,0.558800X1.498600*%
%TA.AperFunction,Material*%
%ADD49R,0.609600X0.609600*%
%ADD50R,1.143000X1.803400*%
%TA.AperFunction,Material*%
%ADD51R,2.032000X0.635000*%
%TA.AperFunction,Material*%
%ADD52R,1.803400X1.143000*%
%TA.AperFunction,Profile*%
%ADD25C,0.101600*%
%TD.AperFunction*%
D47*
X-6880000Y+7240000D03*
X-6880000Y+7160000D03*
X-6880000Y+7080000D03*
X-6880000Y+7000000D03*
X-6880000Y+6920000D03*
X-6880000Y+6840000D03*
X-6880000Y+6760000D03*
X-6880000Y+6680000D03*
D48*
X-6740000Y+6540000D03*
X-6660000Y+6540000D03*
X-6580000Y+6540000D03*
X-6500000Y+6540000D03*
X-6420000Y+6540000D03*
X-6340000Y+6540000D03*
X-6260000Y+6540000D03*
X-6180000Y+6540000D03*
D47*
X-6040000Y+6680000D03*
X-6040000Y+6760000D03*
X-6040000Y+6840000D03*
X-6040000Y+6920000D03*
X-6040000Y+7000000D03*
X-6040000Y+7080000D03*
X-6040000Y+7160000D03*
X-6040000Y+7240000D03*
D48*
X-6180000Y+7380000D03*
X-6260000Y+7380000D03*
X-6340000Y+7380000D03*
X-6420000Y+7380000D03*
X-6500000Y+7380000D03*
X-6580000Y+7380000D03*
X-6660000Y+7380000D03*
X-6740000Y+7380000D03*
D49*
X-8000000Y+7000000D03*
X-7910000Y+7000000D03*
D50*
X-5540000Y+7750000D03*
X-5250000Y+7750000D03*
X-4670000Y+6000000D03*
X-4960000Y+6000000D03*
D51*
X-4914400Y+7504000D03*
X-4914400Y+7377000D03*
X-4914400Y+7250000D03*
X-4914400Y+7123000D03*
X-4914400Y+6996000D03*
X-4914400Y+6869000D03*
X-4914400Y+6742000D03*
X-4914400Y+6615000D03*
X-4914400Y+6488000D03*
X-4914400Y+6361000D03*
X-4000000Y+6361000D03*
X-4000000Y+6488000D03*
X-4000000Y+6615000D03*
X-4000000Y+6742000D03*
X-4000000Y+6869000D03*
X-4000000Y+6996000D03*
X-4000000Y+7123000D03*
X-4000000Y+7250000D03*
X-4000000Y+7377000D03*
X-4000000Y+7504000D03*
D49*
X-8000000Y+6750000D03*
X-7910000Y+6750000D03*
D50*
X-5710000Y+7750000D03*
X-6000000Y+7750000D03*
D52*
X-4000000Y+8000000D03*
X-4000000Y+7710000D03*
X-8763000Y+8001000D03*
X-8763000Y+7711000D03*
D50*
X-8799000Y+6350000D03*
X-8509000Y+6350000D03*
D52*
X-3757000Y+7036000D03*
X-3757000Y+6736000D03*
D25*
X-9504000Y+5246000D02*
X-3250000Y+5246000D01*
X-3250000Y+8873000D01*
X-9504000Y+8873000D01*
X-9504000Y+5246000D01*
M02*
