G04 PROTEUS GERBER X2 FILE*
%TF.GenerationSoftware,Labcenter,Proteus,8.15-SP1-Build34318*%
%TF.CreationDate,2024-02-24T08:34:58+00:00*%
%TF.FileFunction,Soldermask,Top*%
%TF.FilePolarity,Negative*%
%TF.Part,Single*%
%TF.SameCoordinates,{d6b9a477-15e1-4d55-aad5-44706a46bc90}*%
%FSLAX45Y45*%
%MOMM*%
G01*
%TA.AperFunction,Material*%
%ADD31C,1.016000*%
%AMPPAD026*
4,1,4,
-0.749300,-0.279400,
-0.749300,0.279400,
0.749300,0.279400,
0.749300,-0.279400,
-0.749300,-0.279400,
0*%
%TA.AperFunction,Material*%
%ADD32PPAD026*%
%AMPPAD027*
4,1,4,
-0.279400,0.749300,
0.279400,0.749300,
0.279400,-0.749300,
-0.279400,-0.749300,
-0.279400,0.749300,
0*%
%ADD33PPAD027*%
%AMPPAD028*
4,1,4,
0.560000,0.560000,
0.560000,-0.560000,
-0.560000,-0.560000,
-0.560000,0.560000,
0.560000,0.560000,
0*%
%TA.AperFunction,Material*%
%ADD34PPAD028*%
%ADD35C,1.120000*%
%AMPPAD030*
4,1,4,
-0.304800,-0.304800,
-0.304800,0.304800,
0.304800,0.304800,
0.304800,-0.304800,
-0.304800,-0.304800,
0*%
%ADD36PPAD030*%
%AMPPAD031*
4,1,36,
-1.143000,-1.016000,
-1.143000,1.016000,
-1.140470,1.041970,
-1.133200,1.065980,
-1.121650,1.087580,
-1.106290,1.106290,
-1.087570,1.121650,
-1.065980,1.133200,
-1.041970,1.140470,
-1.016000,1.143000,
1.016000,1.143000,
1.041970,1.140470,
1.065980,1.133200,
1.087570,1.121650,
1.106290,1.106290,
1.121650,1.087580,
1.133200,1.065980,
1.140470,1.041970,
1.143000,1.016000,
1.143000,-1.016000,
1.140470,-1.041970,
1.133200,-1.065980,
1.121650,-1.087580,
1.106290,-1.106290,
1.087570,-1.121650,
1.065980,-1.133200,
1.041970,-1.140470,
1.016000,-1.143000,
-1.016000,-1.143000,
-1.041970,-1.140470,
-1.065980,-1.133200,
-1.087570,-1.121650,
-1.106290,-1.106290,
-1.121650,-1.087580,
-1.133200,-1.065980,
-1.140470,-1.041970,
-1.143000,-1.016000,
0*%
%ADD37PPAD031*%
%AMPPAD032*
4,1,4,
-0.571500,0.901700,
0.571500,0.901700,
0.571500,-0.901700,
-0.571500,-0.901700,
-0.571500,0.901700,
0*%
%ADD38PPAD032*%
%AMPPAD033*
4,1,36,
-1.143000,-0.317500,
-1.143000,0.317500,
-1.140470,0.343470,
-1.133200,0.367480,
-1.121650,0.389080,
-1.106290,0.407790,
-1.087570,0.423150,
-1.065980,0.434700,
-1.041970,0.441970,
-1.016000,0.444500,
1.016000,0.444500,
1.041970,0.441970,
1.065980,0.434700,
1.087570,0.423150,
1.106290,0.407790,
1.121650,0.389080,
1.133200,0.367480,
1.140470,0.343470,
1.143000,0.317500,
1.143000,-0.317500,
1.140470,-0.343470,
1.133200,-0.367480,
1.121650,-0.389080,
1.106290,-0.407790,
1.087570,-0.423150,
1.065980,-0.434700,
1.041970,-0.441970,
1.016000,-0.444500,
-1.016000,-0.444500,
-1.041970,-0.441970,
-1.065980,-0.434700,
-1.087570,-0.423150,
-1.106290,-0.407790,
-1.121650,-0.389080,
-1.133200,-0.367480,
-1.140470,-0.343470,
-1.143000,-0.317500,
0*%
%TA.AperFunction,Material*%
%ADD39PPAD033*%
%TA.AperFunction,Material*%
%ADD40C,2.286000*%
%AMPPAD035*
4,1,4,
-0.640000,0.640000,
0.640000,0.640000,
0.640000,-0.640000,
-0.640000,-0.640000,
-0.640000,0.640000,
0*%
%ADD41PPAD035*%
%ADD42C,1.280000*%
%AMPPAD037*
4,1,36,
1.016000,-1.143000,
-1.016000,-1.143000,
-1.041970,-1.140470,
-1.065980,-1.133200,
-1.087580,-1.121650,
-1.106290,-1.106290,
-1.121650,-1.087570,
-1.133200,-1.065980,
-1.140470,-1.041970,
-1.143000,-1.016000,
-1.143000,1.016000,
-1.140470,1.041970,
-1.133200,1.065980,
-1.121650,1.087570,
-1.106290,1.106290,
-1.087580,1.121650,
-1.065980,1.133200,
-1.041970,1.140470,
-1.016000,1.143000,
1.016000,1.143000,
1.041970,1.140470,
1.065980,1.133200,
1.087580,1.121650,
1.106290,1.106290,
1.121650,1.087570,
1.133200,1.065980,
1.140470,1.041970,
1.143000,1.016000,
1.143000,-1.016000,
1.140470,-1.041970,
1.133200,-1.065980,
1.121650,-1.087570,
1.106290,-1.106290,
1.087580,-1.121650,
1.065980,-1.133200,
1.041970,-1.140470,
1.016000,-1.143000,
0*%
%TA.AperFunction,Material*%
%ADD43PPAD037*%
%AMPPAD038*
4,1,4,
0.901700,0.571500,
0.901700,-0.571500,
-0.901700,-0.571500,
-0.901700,0.571500,
0.901700,0.571500,
0*%
%TA.AperFunction,Material*%
%ADD44PPAD038*%
%AMPPAD039*
4,1,8,
0.509800,1.397000,
-0.509800,1.397000,
-0.889000,1.017800,
-0.889000,-1.017800,
-0.509800,-1.397000,
0.509800,-1.397000,
0.889000,-1.017800,
0.889000,1.017800,
0.509800,1.397000,
0*%
%TA.AperFunction,Material*%
%ADD45PPAD039*%
%TA.AperFunction,Material*%
%ADD46C,3.302000*%
%TA.AperFunction,Profile*%
%ADD25C,0.101600*%
%TD.AperFunction*%
D31*
X-6172200Y+6096000D03*
X-4724400Y+6629400D03*
X-6324600Y+6705600D03*
X-6436000Y+6794500D03*
X-4508500Y+7239000D03*
X-8036000Y+6487000D03*
X-6934200Y+8382000D03*
X-7391400Y+8382000D03*
X-6683200Y+6804200D03*
X-7830820Y+7236460D03*
X-6019800Y+7467600D03*
X-6553200Y+7239000D03*
X-5105400Y+7924800D03*
X-4343400Y+6400800D03*
X-4724400Y+7620000D03*
X-5336000Y+7187000D03*
X-5588000Y+6233160D03*
X-8839200Y+6629400D03*
X-4191000Y+6781800D03*
X-5867400Y+7924800D03*
X-5524500Y+7048500D03*
X-7086600Y+6858000D03*
X-8686800Y+6553200D03*
D32*
X-6880000Y+7240000D03*
X-6880000Y+7160000D03*
X-6880000Y+7080000D03*
X-6880000Y+7000000D03*
X-6880000Y+6920000D03*
X-6880000Y+6840000D03*
X-6880000Y+6760000D03*
X-6880000Y+6680000D03*
D33*
X-6740000Y+6540000D03*
X-6660000Y+6540000D03*
X-6580000Y+6540000D03*
X-6500000Y+6540000D03*
X-6420000Y+6540000D03*
X-6340000Y+6540000D03*
X-6260000Y+6540000D03*
X-6180000Y+6540000D03*
D32*
X-6040000Y+6680000D03*
X-6040000Y+6760000D03*
X-6040000Y+6840000D03*
X-6040000Y+6920000D03*
X-6040000Y+7000000D03*
X-6040000Y+7080000D03*
X-6040000Y+7160000D03*
X-6040000Y+7240000D03*
D33*
X-6180000Y+7380000D03*
X-6260000Y+7380000D03*
X-6340000Y+7380000D03*
X-6420000Y+7380000D03*
X-6500000Y+7380000D03*
X-6580000Y+7380000D03*
X-6660000Y+7380000D03*
X-6740000Y+7380000D03*
D34*
X-5500000Y+6750000D03*
D35*
X-5500000Y+6500000D03*
D36*
X-8000000Y+7000000D03*
X-7910000Y+7000000D03*
D37*
X-9144000Y+6604000D03*
X-9144000Y+6858000D03*
X-9144000Y+7112000D03*
X-9144000Y+7366000D03*
X-9144000Y+6301220D03*
X-9144000Y+6047220D03*
D38*
X-5540000Y+7750000D03*
X-5250000Y+7750000D03*
X-4670000Y+6000000D03*
X-4960000Y+6000000D03*
D39*
X-4914400Y+7504000D03*
X-4914400Y+7377000D03*
X-4914400Y+7250000D03*
X-4914400Y+7123000D03*
X-4914400Y+6996000D03*
X-4914400Y+6869000D03*
X-4914400Y+6742000D03*
X-4914400Y+6615000D03*
X-4914400Y+6488000D03*
X-4914400Y+6361000D03*
X-4000000Y+6361000D03*
X-4000000Y+6488000D03*
X-4000000Y+6615000D03*
X-4000000Y+6742000D03*
X-4000000Y+6869000D03*
X-4000000Y+6996000D03*
X-4000000Y+7123000D03*
X-4000000Y+7250000D03*
X-4000000Y+7377000D03*
X-4000000Y+7504000D03*
D40*
X-7500000Y+7258000D03*
X-7500000Y+6750000D03*
D41*
X-8250000Y+7750000D03*
D42*
X-7900000Y+7750000D03*
D36*
X-8000000Y+6750000D03*
X-7910000Y+6750000D03*
D43*
X-5492000Y+8500000D03*
X-5746000Y+8500000D03*
X-6000000Y+8500000D03*
X-6254000Y+8500000D03*
D37*
X-3500000Y+6750000D03*
X-3500000Y+7004000D03*
X-9144000Y+7874000D03*
X-9144000Y+7620000D03*
D38*
X-5710000Y+7750000D03*
X-6000000Y+7750000D03*
D44*
X-4000000Y+8000000D03*
X-4000000Y+7710000D03*
D37*
X-8500000Y+6746000D03*
X-8500000Y+7000000D03*
X-8500000Y+7254000D03*
D43*
X-4191000Y+5588000D03*
X-3937000Y+5588000D03*
X-3996000Y+8500000D03*
X-4250000Y+8500000D03*
X-7962000Y+5587000D03*
X-8216000Y+5587000D03*
X-8470000Y+5587000D03*
X-8724000Y+5587000D03*
X-8026000Y+8497000D03*
X-8280000Y+8497000D03*
X-8534000Y+8497000D03*
X-8788000Y+8497000D03*
D45*
X-6722000Y+6000000D03*
X-6976000Y+6000000D03*
X-7230000Y+6000000D03*
X-7484000Y+6000000D03*
X-7738000Y+6000000D03*
X-7992000Y+6000000D03*
X-8246000Y+6000000D03*
X-8500000Y+6000000D03*
D43*
X-5207000Y+8509000D03*
X-4953000Y+8509000D03*
X-4699000Y+8509000D03*
X-5207000Y+5588000D03*
X-4953000Y+5588000D03*
X-4699000Y+5588000D03*
D44*
X-8763000Y+8001000D03*
X-8763000Y+7711000D03*
D38*
X-8799000Y+6350000D03*
X-8509000Y+6350000D03*
D46*
X-9196000Y+8507000D03*
X-9226000Y+5567000D03*
X-3566000Y+5597000D03*
X-3556000Y+8507000D03*
D44*
X-3757000Y+7036000D03*
X-3757000Y+6736000D03*
D25*
X-9504000Y+5246000D02*
X-3250000Y+5246000D01*
X-3250000Y+8873000D01*
X-9504000Y+8873000D01*
X-9504000Y+5246000D01*
M02*
