G04 PROTEUS GERBER X2 FILE*
%TF.GenerationSoftware,Labcenter,Proteus,8.15-SP1-Build34318*%
%TF.CreationDate,2024-02-24T08:34:58+00:00*%
%TF.FileFunction,Plated,1,2,PTH*%
%TF.FilePolarity,Positive*%
%TF.Part,Single*%
%TF.SameCoordinates,{d6b9a477-15e1-4d55-aad5-44706a46bc90}*%
%FSLAX45Y45*%
%MOMM*%
G01*
%TA.AperFunction,ViaDrill*%
%ADD82C,0.381000*%
%TA.AperFunction,ComponentDrill*%
%ADD83C,0.750000*%
%ADD84C,1.016000*%
%ADD85C,0.762000*%
%ADD86C,0.850000*%
%TA.AperFunction,ComponentDrill*%
%ADD87C,1.000000*%
%TA.AperFunction,OtherDrill,Unknown*%
%ADD88C,2.311400*%
%TD.AperFunction*%
D82*
X-6172200Y+6096000D03*
X-4724400Y+6629400D03*
X-6324600Y+6705600D03*
X-6436000Y+6794500D03*
X-4508500Y+7239000D03*
X-8036000Y+6487000D03*
X-6934200Y+8382000D03*
X-7391400Y+8382000D03*
X-6683200Y+6804200D03*
X-7830820Y+7236460D03*
X-6019800Y+7467600D03*
X-6553200Y+7239000D03*
X-5105400Y+7924800D03*
X-4343400Y+6400800D03*
X-4724400Y+7620000D03*
X-5336000Y+7187000D03*
X-5588000Y+6233160D03*
X-8839200Y+6629400D03*
X-4191000Y+6781800D03*
X-5867400Y+7924800D03*
X-5524500Y+7048500D03*
X-7086600Y+6858000D03*
X-8686800Y+6553200D03*
D83*
X-5500000Y+6750000D03*
X-5500000Y+6500000D03*
D84*
X-9144000Y+6604000D03*
X-9144000Y+6858000D03*
X-9144000Y+7112000D03*
X-9144000Y+7366000D03*
X-9144000Y+6301220D03*
X-9144000Y+6047220D03*
D85*
X-7500000Y+7258000D03*
X-7500000Y+6750000D03*
D86*
X-8250000Y+7750000D03*
X-7900000Y+7750000D03*
D84*
X-5492000Y+8500000D03*
X-5746000Y+8500000D03*
X-6000000Y+8500000D03*
X-6254000Y+8500000D03*
X-3500000Y+6750000D03*
X-3500000Y+7004000D03*
X-9144000Y+7874000D03*
X-9144000Y+7620000D03*
X-8500000Y+6746000D03*
X-8500000Y+7000000D03*
X-8500000Y+7254000D03*
X-4191000Y+5588000D03*
X-3937000Y+5588000D03*
X-3996000Y+8500000D03*
X-4250000Y+8500000D03*
X-7962000Y+5587000D03*
X-8216000Y+5587000D03*
X-8470000Y+5587000D03*
X-8724000Y+5587000D03*
X-8026000Y+8497000D03*
X-8280000Y+8497000D03*
X-8534000Y+8497000D03*
X-8788000Y+8497000D03*
D87*
X-6722000Y+6000000D03*
X-6976000Y+6000000D03*
X-7230000Y+6000000D03*
X-7484000Y+6000000D03*
X-7738000Y+6000000D03*
X-7992000Y+6000000D03*
X-8246000Y+6000000D03*
X-8500000Y+6000000D03*
D84*
X-5207000Y+8509000D03*
X-4953000Y+8509000D03*
X-4699000Y+8509000D03*
X-5207000Y+5588000D03*
X-4953000Y+5588000D03*
X-4699000Y+5588000D03*
D88*
X-9196000Y+8507000D03*
X-9226000Y+5567000D03*
X-3566000Y+5597000D03*
X-3556000Y+8507000D03*
M02*
