G04 PROTEUS GERBER X2 FILE*
%TF.GenerationSoftware,Labcenter,Proteus,8.15-SP1-Build34318*%
%TF.CreationDate,2024-02-24T08:34:58+00:00*%
%TF.FileFunction,AssemblyDrawing,Bot*%
%TF.FilePolarity,Positive*%
%TF.Part,Single*%
%TF.SameCoordinates,{d6b9a477-15e1-4d55-aad5-44706a46bc90}*%
%FSLAX45Y45*%
%MOMM*%
G01*
%TA.AperFunction,Profile*%
%ADD25C,0.101600*%
%TA.AperFunction,Material*%
%ADD73C,0.101600*%
%ADD80C,1.016000*%
%ADD81C,0.237060*%
%TA.AperFunction,NonMaterial*%
%ADD26C,0.101600*%
%TD.AperFunction*%
D25*
X-9504000Y+5246000D02*
X-3250000Y+5246000D01*
X-3250000Y+8873000D01*
X-9504000Y+8873000D01*
X-9504000Y+5246000D01*
D73*
X-8632080Y+5804420D02*
X-6589920Y+5804420D01*
X-6589920Y+6195580D01*
X-8632080Y+6195580D01*
X-8632080Y+5804420D01*
D80*
X-6722000Y+6000000D02*
X-6722000Y+6000000D01*
D81*
X-8102490Y+5928880D02*
X-7995810Y+5928880D01*
X-8049150Y+5928880D02*
X-8049150Y+6071120D01*
X-8102490Y+6071120D02*
X-7995810Y+6071120D01*
X-7755780Y+6047413D02*
X-7782450Y+6071120D01*
X-7862460Y+6071120D01*
X-7915800Y+6023707D01*
X-7915800Y+5976293D01*
X-7862460Y+5928880D01*
X-7782450Y+5928880D01*
X-7755780Y+5952587D01*
X-7702440Y+6047413D02*
X-7675770Y+6071120D01*
X-7569090Y+6071120D01*
X-7542420Y+6047413D01*
X-7542420Y+6023707D01*
X-7569090Y+6000000D01*
X-7675770Y+6000000D01*
X-7702440Y+5976293D01*
X-7702440Y+5952587D01*
X-7675770Y+5928880D01*
X-7569090Y+5928880D01*
X-7542420Y+5952587D01*
X-7489080Y+6071120D02*
X-7489080Y+5928880D01*
X-7355730Y+5928880D01*
X-7329060Y+5952587D01*
X-7329060Y+5976293D01*
X-7355730Y+6000000D01*
X-7489080Y+6000000D01*
D26*
X-9546000Y+8867000D02*
X-9546000Y+5247000D01*
X-9546000Y+8867000D02*
X-9647600Y+8765400D01*
X-9546000Y+8867000D02*
X-9444400Y+8765400D01*
X-9546000Y+5247000D02*
X-9444400Y+5348600D01*
X-9546000Y+5247000D02*
X-9647600Y+5348600D01*
X-9520600Y+7057000D02*
X-9520688Y+7059109D01*
X-9521401Y+7063328D01*
X-9522893Y+7067547D01*
X-9525333Y+7071766D01*
X-9529064Y+7075930D01*
X-9533283Y+7078987D01*
X-9537502Y+7080936D01*
X-9541721Y+7082037D01*
X-9545940Y+7082400D01*
X-9546000Y+7082400D01*
X-9571400Y+7057000D02*
X-9571312Y+7059109D01*
X-9570599Y+7063328D01*
X-9569107Y+7067547D01*
X-9566667Y+7071766D01*
X-9562936Y+7075930D01*
X-9558717Y+7078987D01*
X-9554498Y+7080936D01*
X-9550279Y+7082037D01*
X-9546060Y+7082400D01*
X-9546000Y+7082400D01*
X-9571400Y+7057000D02*
X-9571312Y+7054891D01*
X-9570599Y+7050672D01*
X-9569107Y+7046453D01*
X-9566667Y+7042234D01*
X-9562936Y+7038070D01*
X-9558717Y+7035013D01*
X-9554498Y+7033064D01*
X-9550279Y+7031963D01*
X-9546060Y+7031600D01*
X-9546000Y+7031600D01*
X-9520600Y+7057000D02*
X-9520688Y+7054891D01*
X-9521401Y+7050672D01*
X-9522893Y+7046453D01*
X-9525333Y+7042234D01*
X-9529064Y+7038070D01*
X-9533283Y+7035013D01*
X-9537502Y+7033064D01*
X-9541721Y+7031963D01*
X-9545940Y+7031600D01*
X-9546000Y+7031600D01*
X-9622020Y+7363705D02*
X-9609320Y+7350370D01*
X-9609320Y+7310365D01*
X-9622020Y+7297030D01*
X-9634720Y+7297030D01*
X-9647420Y+7310365D01*
X-9660120Y+7297030D01*
X-9672820Y+7297030D01*
X-9685520Y+7310365D01*
X-9685520Y+7350370D01*
X-9672820Y+7363705D01*
X-9647420Y+7337035D02*
X-9647420Y+7310365D01*
X-9622020Y+7190350D02*
X-9609320Y+7203685D01*
X-9609320Y+7243690D01*
X-9622020Y+7257025D01*
X-9672820Y+7257025D01*
X-9685520Y+7243690D01*
X-9685520Y+7203685D01*
X-9672820Y+7190350D01*
X-9660120Y+7190350D01*
X-9647420Y+7203685D01*
X-9647420Y+7257025D01*
X-9672820Y+7123675D02*
X-9672820Y+7110340D01*
X-9685520Y+7110340D01*
X-9685520Y+7123675D01*
X-9672820Y+7123675D01*
X-9622020Y+7043665D02*
X-9609320Y+7030330D01*
X-9609320Y+6990325D01*
X-9622020Y+6976990D01*
X-9634720Y+6976990D01*
X-9647420Y+6990325D01*
X-9647420Y+7030330D01*
X-9660120Y+7043665D01*
X-9685520Y+7043665D01*
X-9685520Y+6976990D01*
X-9685520Y+6950320D02*
X-9634720Y+6950320D01*
X-9647420Y+6950320D02*
X-9634720Y+6936985D01*
X-9660120Y+6910315D01*
X-9634720Y+6883645D01*
X-9647420Y+6870310D01*
X-9685520Y+6870310D01*
X-9685520Y+6843640D02*
X-9634720Y+6843640D01*
X-9647420Y+6843640D02*
X-9634720Y+6830305D01*
X-9660120Y+6803635D01*
X-9634720Y+6776965D01*
X-9647420Y+6763630D01*
X-9685520Y+6763630D01*
X-9486000Y+8907000D02*
X-3246000Y+8917000D01*
X-9486000Y+8907000D02*
X-9384237Y+8805562D01*
X-9486000Y+8907000D02*
X-9384562Y+9008762D01*
X-3246000Y+8917000D02*
X-3347762Y+9018437D01*
X-3246000Y+8917000D02*
X-3347437Y+8815237D01*
X-6340600Y+8912000D02*
X-6340688Y+8914109D01*
X-6341401Y+8918328D01*
X-6342893Y+8922547D01*
X-6345333Y+8926766D01*
X-6349064Y+8930930D01*
X-6353283Y+8933987D01*
X-6357502Y+8935936D01*
X-6361721Y+8937037D01*
X-6365940Y+8937400D01*
X-6366000Y+8937400D01*
X-6391400Y+8912000D02*
X-6391312Y+8914109D01*
X-6390599Y+8918328D01*
X-6389107Y+8922547D01*
X-6386667Y+8926766D01*
X-6382936Y+8930930D01*
X-6378717Y+8933987D01*
X-6374498Y+8935936D01*
X-6370279Y+8937037D01*
X-6366060Y+8937400D01*
X-6366000Y+8937400D01*
X-6391400Y+8912000D02*
X-6391312Y+8909891D01*
X-6390599Y+8905672D01*
X-6389107Y+8901453D01*
X-6386667Y+8897234D01*
X-6382936Y+8893070D01*
X-6378717Y+8890013D01*
X-6374498Y+8888064D01*
X-6370279Y+8886963D01*
X-6366060Y+8886600D01*
X-6366000Y+8886600D01*
X-6340600Y+8912000D02*
X-6340688Y+8909891D01*
X-6341401Y+8905672D01*
X-6342893Y+8901453D01*
X-6345333Y+8897234D01*
X-6349064Y+8893070D01*
X-6353283Y+8890013D01*
X-6357502Y+8888064D01*
X-6361721Y+8886963D01*
X-6365940Y+8886600D01*
X-6366000Y+8886600D01*
X-6766050Y+9105980D02*
X-6779385Y+9118680D01*
X-6819390Y+9118680D01*
X-6832725Y+9105980D01*
X-6832725Y+9055180D01*
X-6819390Y+9042480D01*
X-6779385Y+9042480D01*
X-6766050Y+9055180D01*
X-6766050Y+9067880D01*
X-6779385Y+9080580D01*
X-6832725Y+9080580D01*
X-6726045Y+9105980D02*
X-6712710Y+9118680D01*
X-6672705Y+9118680D01*
X-6659370Y+9105980D01*
X-6659370Y+9093280D01*
X-6672705Y+9080580D01*
X-6712710Y+9080580D01*
X-6726045Y+9067880D01*
X-6726045Y+9042480D01*
X-6659370Y+9042480D01*
X-6592695Y+9055180D02*
X-6579360Y+9055180D01*
X-6579360Y+9042480D01*
X-6592695Y+9042480D01*
X-6592695Y+9055180D01*
X-6446010Y+9067880D02*
X-6526020Y+9067880D01*
X-6472680Y+9118680D01*
X-6472680Y+9042480D01*
X-6419340Y+9055180D02*
X-6419340Y+9105980D01*
X-6406005Y+9118680D01*
X-6352665Y+9118680D01*
X-6339330Y+9105980D01*
X-6339330Y+9055180D01*
X-6352665Y+9042480D01*
X-6406005Y+9042480D01*
X-6419340Y+9055180D01*
X-6419340Y+9042480D02*
X-6339330Y+9118680D01*
X-6312660Y+9055180D02*
X-6312660Y+9105980D01*
X-6299325Y+9118680D01*
X-6245985Y+9118680D01*
X-6232650Y+9105980D01*
X-6232650Y+9055180D01*
X-6245985Y+9042480D01*
X-6299325Y+9042480D01*
X-6312660Y+9055180D01*
X-6312660Y+9042480D02*
X-6232650Y+9118680D01*
X-6179310Y+9093280D02*
X-6152640Y+9118680D01*
X-6152640Y+9042480D01*
X-6099300Y+9042480D02*
X-6099300Y+9093280D01*
X-6099300Y+9080580D02*
X-6085965Y+9093280D01*
X-6059295Y+9067880D01*
X-6032625Y+9093280D01*
X-6019290Y+9080580D01*
X-6019290Y+9042480D01*
X-5992620Y+9042480D02*
X-5992620Y+9093280D01*
X-5992620Y+9080580D02*
X-5979285Y+9093280D01*
X-5952615Y+9067880D01*
X-5925945Y+9093280D01*
X-5912610Y+9080580D01*
X-5912610Y+9042480D01*
M02*
